<svg width="45" height="27" viewBox="0 0 45 27" fill="none" xmlns="http://www.w3.org/2000/svg">
<path d="M33.0332 1L26.9193 10.2014H29.9383C30.7667 10.2014 31.4383 10.873 31.4383 11.7014V26H44.375V1H33.0332Z" fill="black"/>
<path d="M1.375 1V26H13.2773L29.9355 1H20.2383L11.339 13.6854C10.7778 14.4854 9.52032 14.0883 9.52032 13.1111V1H1.375Z" fill="black"/>
<path d="M33.0332 1L26.9193 10.2014H29.9383C30.7667 10.2014 31.4383 10.873 31.4383 11.7014V26H44.375V1H33.0332Z" stroke="black"/>
<path d="M1.375 1V26H13.2773L29.9355 1H20.2383L11.339 13.6854C10.7778 14.4854 9.52032 14.0883 9.52032 13.1111V1H1.375Z" stroke="black"/>
</svg>
